<svg width="146" height="30" viewBox="0 0 146 30" fill="none" xmlns="http://www.w3.org/2000/svg">
<g clip-path="url(#clip0_1820_12424)">
<path d="M40.0176 8.09863V22.7254C40.0176 26.6244 42.3754 28.8079 46.0728 29.4094C47.5119 29.6434 52.2055 29.7771 54.0763 29.3092V24.8977C51.652 25.4102 48.2867 25.2319 46.8477 24.8086C45.7296 24.4744 44.9879 23.5387 44.9879 22.3244V8.09863H40.0176Z" fill="#004EA2"/>
<path d="M62.7552 11.9976C57.3642 11.9976 53.6558 15.9968 53.6558 20.9318C53.6558 25.8668 56.8217 29.8661 62.7552 29.8661C68.6886 29.8661 71.8546 25.8668 71.8546 20.9318C71.8546 15.9968 68.1462 11.9976 62.7552 11.9976ZM62.7552 25.4435C60.1427 25.4435 58.7036 23.4272 58.7036 20.9318C58.7036 18.4365 60.198 16.4201 62.7552 16.4201C65.3123 16.4201 66.7956 18.4476 66.7956 20.9318C66.7956 23.416 65.3566 25.4435 62.7552 25.4435Z" fill="#00A0D2"/>
<path d="M103.193 11.9976C97.8021 11.9976 94.0938 15.9968 94.0938 20.9318C94.0938 25.8668 97.2597 29.8661 103.193 29.8661C109.127 29.8661 112.293 25.8668 112.293 20.9318C112.293 15.9968 108.584 11.9976 103.193 11.9976ZM103.193 25.4435C100.592 25.4435 99.1527 23.4272 99.1527 20.9318C99.1527 18.4365 100.647 16.4201 103.193 16.4201C105.739 16.4201 107.234 18.4476 107.234 20.9318C107.234 23.416 105.795 25.4435 103.193 25.4435Z" fill="#8FC31F"/>
<path d="M92.0458 25.5772C91.1713 25.5326 90.2857 25.4324 90.2857 24.6971V16.5538H94.6251V12.1758H90.1861V8.0874H85.3043V12.1758H79.1827V8.0874H74.3009V12.1758H71.2456V16.5538H74.3009V25.722C74.3009 28.7966 77.334 29.3982 78.9059 29.5653C80.4336 29.7324 82.9464 29.4762 84.0202 29.2645V25.1762C83.2564 25.4212 81.5738 25.5883 81.0313 25.5772C80.1568 25.5326 79.2712 25.4324 79.2712 24.6971V16.5538H85.3043V25.722C85.3043 28.7966 88.3374 29.3982 89.8983 29.5653C91.437 29.7324 93.662 29.5207 94.6362 29.2979V25.2096C93.983 25.4546 92.5772 25.5883 92.0347 25.5661L92.0458 25.5772Z" fill="#004EA2"/>
<path d="M127.779 16.019L121.791 29.9997H123.65L129.65 16.019H127.779Z" fill="#8FC31F"/>
<path d="M144.772 21.6338C143.963 20.776 142.923 20.3415 141.661 20.3415C141.594 20.3415 141.506 20.3415 141.417 20.3415C141.329 20.3415 141.24 20.3527 141.141 20.3638L141.783 18.2027H145.79V16.3423H140.41L138.362 23.2379H139.015C139.657 22.4581 140.421 22.0794 141.296 22.0794C142.093 22.0794 142.746 22.3579 143.277 22.9037C143.808 23.4385 144.063 24.118 144.063 24.9535C144.063 25.789 143.797 26.4574 143.266 27.0367C142.735 27.5937 142.07 27.8722 141.285 27.8722C140.676 27.8722 140.166 27.7274 139.757 27.4489C139.336 27.1592 138.927 26.6691 138.517 25.9672L137.034 27.2372C138.03 28.8636 139.392 29.6769 141.118 29.6769C142.513 29.6769 143.676 29.2313 144.594 28.3401C145.524 27.4489 145.978 26.3126 145.978 24.9312C145.978 23.5499 145.569 22.5027 144.76 21.6449L144.772 21.6338Z" fill="#004EA2"/>
<path d="M121.104 22.3913C120.329 21.5781 119.421 21.1659 118.359 21.1659C118.292 21.1659 118.204 21.1659 118.082 21.1882C117.971 21.1882 117.816 21.2216 117.65 21.2327L121.292 16.3423H119.045L114.772 22.1017C113.92 23.2602 113.499 24.3631 113.499 25.3991C113.499 26.5577 113.931 27.5491 114.805 28.3958C115.691 29.2313 116.731 29.6546 117.905 29.6546C119.078 29.6546 120.119 29.2313 120.971 28.3735C121.824 27.5157 122.255 26.4797 122.255 25.2877C122.255 24.1626 121.879 23.1934 121.115 22.3802L121.104 22.3913ZM119.61 27.1481C119.134 27.6271 118.558 27.8722 117.883 27.8722C117.207 27.8722 116.61 27.6382 116.134 27.1481C115.658 26.6691 115.414 26.0898 115.414 25.3991C115.414 24.7084 115.658 24.1291 116.134 23.6501C116.61 23.1711 117.196 22.926 117.883 22.926C118.569 22.926 119.145 23.1711 119.621 23.6501C120.097 24.1291 120.34 24.7196 120.34 25.4102C120.34 26.1009 120.097 26.6468 119.621 27.1369L119.61 27.1481Z" fill="#004EA2"/>
<path d="M134.775 16.353H133.214L127.192 26.4681V27.5933H132.816V29.4537H134.775V27.5933H136.159V25.7997H134.775V16.353ZM132.816 25.7997H129.816L132.816 20.6642V25.7997Z" fill="#004EA2"/>
<path d="M17.2138 0.913553L15.9408 0.389974C15.7747 0.323134 15.509 0.323134 15.343 0.389974L14.07 0.913553L12.7969 1.42599L12.498 1.54853L13.3836 7.99859H17.9887L18.7636 1.54853L18.4647 1.42599L17.1917 0.902413L17.2138 0.913553Z" fill="url(#paint0_linear_1820_12424)"/>
<path d="M10.9371 0.913553L9.66403 0.389974C9.49799 0.323134 9.23231 0.323134 9.06626 0.389974L7.79323 0.913553L6.5202 1.43713C6.35415 1.50397 6.28774 1.69335 6.36522 1.84931L9.23231 8.00973H13.3946L12.509 1.55967L12.2101 1.43713L10.9371 0.924693V0.913553Z" fill="url(#paint1_linear_1820_12424)"/>
<path d="M24.7521 1.43722L23.4791 0.924784L22.2171 0.401204C22.0511 0.334364 21.7854 0.334364 21.6193 0.401204L20.3463 0.924784L19.0733 1.43722L18.7744 1.55976L17.9995 8.00982H22.1618L24.9182 1.86054C24.9956 1.69344 24.9182 1.5152 24.7521 1.43722Z" fill="url(#paint2_linear_1820_12424)"/>
<path d="M13.3948 8.21045H9.13287L1.06297 16.2312C-0.497878 17.7574 -0.198993 19.8183 1.06297 21.1774L7.81556 29.1648C7.92626 29.2985 8.09231 29.4099 8.26943 29.499L13.3948 8.46667V8.21045Z" fill="url(#paint3_linear_1820_12424)"/>
<path d="M30.2322 21.1886C31.4941 19.8184 31.793 17.7575 30.2322 16.2425L22.1622 8.22168H18.0664L23.0368 29.5102C23.2139 29.4211 23.3799 29.3097 23.4906 29.176L30.2432 21.1886H30.2322Z" fill="url(#paint4_linear_1820_12424)"/>
<path d="M23.0256 29.5102L18.0553 8.22168H13.4613L8.26953 29.5102C8.46879 29.6105 8.69019 29.6662 8.87837 29.6662H22.4278C22.616 29.6662 22.8374 29.5993 23.0367 29.5102H23.0256Z" fill="url(#paint5_linear_1820_12424)"/>
<path d="M27.0993 24.8872H4.1958L7.81564 29.165C7.92633 29.2986 8.09238 29.41 8.2695 29.4992C8.46876 29.5994 8.69015 29.6551 8.87834 29.6551H22.4278C22.616 29.6551 22.8374 29.5883 23.0367 29.4992C23.2138 29.41 23.3798 29.2986 23.4905 29.165L27.1104 24.8872H27.0993Z" fill="url(#paint6_linear_1820_12424)"/>
<path d="M24.2765 7.11816H9.38756C8.84514 7.11816 8.40234 7.56376 8.40234 8.10962C8.40234 8.65548 8.84514 9.10108 9.38756 9.10108H24.2765" fill="white"/>
<path d="M24.2762 9.55802H9.38732C8.59029 9.55802 7.94824 8.9119 7.94824 8.10982C7.94824 7.30774 8.59029 6.66162 9.38732 6.66162H24.2762V7.5751H9.38732C9.08843 7.5751 8.85597 7.80904 8.85597 8.10982C8.85597 8.4106 9.08843 8.64454 9.38732 8.64454H24.2762V9.55802Z" fill="#005083"/>
<path d="M9.43169 24.7529H4.08496L4.31743 25.0314H9.3542L9.43169 24.7529Z" fill="url(#paint7_linear_1820_12424)"/>
<path d="M21.9847 25.0314H26.9772L27.2097 24.7529H21.9072L21.9847 25.0314Z" fill="url(#paint8_linear_1820_12424)"/>
<path d="M9.43165 24.7529L9.36523 25.0314H21.9848L21.9074 24.7529H9.43165Z" fill="url(#paint9_linear_1820_12424)"/>
<path d="M34.2723 3.96584C34.2723 6.14928 32.5122 7.93167 30.3315 7.93167C28.1507 7.93167 26.3906 6.16042 26.3906 3.96584C26.3906 1.77126 28.1507 0 30.3315 0C32.5122 0 34.2723 1.77126 34.2723 3.96584Z" fill="#005083"/>
<path d="M33.398 3.95483C33.398 5.67039 32.0253 7.05175 30.3206 7.05175C28.6158 7.05175 27.2432 5.67039 27.2432 3.95483C27.2432 2.23927 28.6269 0.85791 30.3206 0.85791C32.0143 0.85791 33.398 2.23927 33.398 3.95483Z" fill="#009944"/>
<path d="M29.5233 3.20841C28.7595 4.15531 28.5935 4.34469 28.0068 4.43381C27.6193 4.48951 27.4312 4.15531 27.4312 3.67629C27.4312 3.19727 27.6083 2.58457 27.9625 2.08327C28.3721 1.49285 29.0031 1.16979 29.5676 1.09181C30.1322 1.01383 30.6414 1.16979 30.7853 1.54855C30.9956 2.09441 30.0326 2.58457 29.5233 3.20841Z" fill="#009944"/>
<path d="M27.9736 2.09465C28.3721 1.51537 29.0031 1.19231 29.5676 1.11433C30.1322 1.03635 30.6303 1.19231 30.7742 1.55993C30.9846 2.10579 30.0326 2.5848 29.5344 3.1975C28.7817 4.13326 28.6156 4.32264 28.04 4.40062C27.6525 4.45632 27.4644 4.12212 27.4644 3.65424C27.4644 3.18636 27.6415 2.57367 27.9846 2.08351L27.9736 2.09465Z" fill="#009A45"/>
<path d="M27.9846 2.09425C28.3832 1.52611 29.0031 1.20305 29.5566 1.12507C30.11 1.04709 30.6082 1.20305 30.741 1.57067C30.9403 2.10539 30.0104 2.58441 29.5123 3.18597C28.7706 4.11059 28.5935 4.28883 28.0289 4.37795C27.6525 4.43365 27.4644 4.11059 27.4644 3.64271C27.4644 3.17483 27.6415 2.57327 27.9736 2.09425H27.9846Z" fill="#009B46"/>
<path d="M27.9845 2.09439C28.3719 1.52625 28.9918 1.21433 29.5342 1.13635C30.0767 1.05837 30.5637 1.21433 30.7076 1.57081C30.9069 2.09439 29.9881 2.56227 29.501 3.17497C28.7704 4.07731 28.5933 4.26669 28.0398 4.35581C27.6634 4.41151 27.4863 4.08845 27.4863 3.63171C27.4863 3.17497 27.6634 2.58455 27.9955 2.10553L27.9845 2.09439Z" fill="#009C47"/>
<path d="M27.9955 2.09432C28.383 1.53732 28.9808 1.2254 29.5232 1.14742C30.0656 1.06944 30.5416 1.21426 30.6855 1.58188C30.8848 2.09432 29.977 2.5622 29.49 3.16376C28.7704 4.05496 28.5933 4.24434 28.0398 4.32232C27.6634 4.37802 27.4863 4.05496 27.4863 3.60936C27.4863 3.16376 27.6524 2.57334 27.9845 2.09432H27.9955Z" fill="#009C48"/>
<path d="M28.0066 2.09447C28.383 1.54861 28.9807 1.23669 29.5232 1.15871C30.0656 1.08073 30.5305 1.22555 30.6634 1.58203C30.8626 2.08333 29.966 2.55121 29.49 3.14163C28.7704 4.02169 28.6044 4.21107 28.062 4.28905C27.6966 4.34475 27.5195 4.03283 27.5195 3.58723C27.5195 3.14163 27.6856 2.56235 28.0177 2.09447H28.0066Z" fill="#009D49"/>
<path d="M28.0177 2.09456C28.394 1.5487 28.9807 1.24792 29.5121 1.16994C30.0435 1.09196 30.5084 1.23678 30.6412 1.59326C30.8294 2.09456 29.9549 2.5513 29.4789 3.13058C28.7704 3.9995 28.5933 4.18888 28.062 4.26686C27.6966 4.32256 27.5306 4.01064 27.5195 3.56504C27.5085 3.11944 27.6856 2.5513 28.0066 2.09456H28.0177Z" fill="#009E4A"/>
<path d="M28.0287 2.09423C28.4051 1.55951 28.9807 1.25873 29.501 1.18075C30.0213 1.10277 30.4862 1.24759 30.6191 1.59293C30.8073 2.08309 29.9438 2.53983 29.4789 3.10797C28.7815 3.95461 28.6044 4.14399 28.0841 4.2331C27.7299 4.28881 27.5527 3.97689 27.5527 3.54243C27.5527 3.10797 27.7188 2.53983 28.0287 2.09423Z" fill="#009F4C"/>
<path d="M28.04 2.09438C28.4053 1.55966 28.9809 1.27002 29.4901 1.20318C29.9993 1.13634 30.4532 1.27002 30.586 1.61536C30.7742 2.09438 29.9218 2.55112 29.4569 3.10812C28.7706 3.94362 28.5935 4.133 28.0842 4.21098C27.73 4.26668 27.564 3.9659 27.564 3.53144C27.564 3.09698 27.73 2.55112 28.04 2.09438Z" fill="#00A04D"/>
<path d="M28.0512 2.09452C28.4165 1.57094 28.9811 1.2813 29.4792 1.21446C29.9774 1.14762 30.4312 1.2813 30.5641 1.6155C30.7412 2.08338 29.911 2.52898 29.4571 3.08598C28.7818 3.91034 28.5937 4.09972 28.0955 4.1777C27.7523 4.2334 27.5863 3.93262 27.5752 3.5093C27.5642 3.08598 27.7302 2.54012 28.0402 2.09452H28.0512Z" fill="#00A14E"/>
<path d="M28.0623 2.09461C28.4165 1.58217 28.9811 1.29253 29.4792 1.22569C29.9773 1.15885 30.4201 1.29253 30.553 1.62673C30.7301 2.09461 29.9109 2.52907 29.4571 3.08607C28.7929 3.89929 28.6047 4.08867 28.1176 4.16665C27.7744 4.22235 27.6084 3.92157 27.6084 3.50939C27.6084 3.09721 27.7634 2.55135 28.0733 2.11689L28.0623 2.09461Z" fill="#00A250"/>
<path d="M28.073 2.09427C28.4272 1.58183 28.9697 1.30333 29.4678 1.23649C29.9659 1.16965 30.3977 1.30333 30.5194 1.62639C30.6966 2.08313 29.8885 2.51759 29.4457 3.06345C28.7925 3.85439 28.6044 4.05491 28.1173 4.12175C27.7741 4.17745 27.6191 3.87667 27.6191 3.47563C27.6191 3.07459 27.7741 2.52873 28.073 2.09427Z" fill="#00A351"/>
<path d="M28.0842 2.09436C28.4274 1.59306 28.9698 1.31456 29.4569 1.24772C29.944 1.18088 30.3757 1.31456 30.4975 1.63762C30.6635 2.08322 29.8775 2.51768 29.4348 3.0524C28.7927 3.8322 28.6045 4.03272 28.1285 4.09956C27.7964 4.14412 27.6304 3.86562 27.6304 3.45344C27.6304 3.04126 27.7854 2.51768 28.0842 2.09436Z" fill="#00A452"/>
<path d="M28.0951 2.0945C28.4383 1.60434 28.9697 1.32584 29.4457 1.259C29.9217 1.19216 30.3534 1.32584 30.4752 1.63776C30.6412 2.07222 29.8663 2.50668 29.4346 3.03026C28.8036 3.79892 28.6043 3.9883 28.1394 4.06628C27.8073 4.11084 27.6523 3.83234 27.6523 3.4313C27.6523 3.03026 27.8073 2.51782 28.0951 2.0945Z" fill="#00A553"/>
<path d="M28.1065 2.09459C28.4386 1.60443 28.97 1.33707 29.446 1.27023C29.922 1.20339 30.3316 1.33707 30.4533 1.64899C30.6194 2.07231 29.8556 2.49563 29.4238 3.01921C28.8039 3.77673 28.6047 3.96611 28.1508 4.03295C27.8298 4.07751 27.6748 3.79901 27.6748 3.40911C27.6748 3.01921 27.8187 2.50677 28.1065 2.09459Z" fill="#00A755"/>
<path d="M28.1065 2.09425C28.4386 1.61523 28.9589 1.34787 29.4238 1.28103C29.8888 1.21419 30.2984 1.34787 30.4201 1.64865C30.5862 2.07197 29.8334 2.48415 29.4128 2.99659C28.8039 3.73183 28.6047 3.93235 28.1508 3.99919C27.8298 4.04375 27.6748 3.77639 27.6748 3.38649C27.6748 2.99659 27.8187 2.49529 28.1065 2.08311V2.09425Z" fill="#00A856"/>
<path d="M28.1174 2.09419C28.4495 1.62631 28.9587 1.35895 29.4126 1.29211C29.8665 1.22527 30.276 1.34781 30.3978 1.65973C30.5528 2.07191 29.8222 2.48409 29.4015 2.99653C28.7927 3.72063 28.5934 3.92115 28.1617 3.98799C27.8518 4.03255 27.6968 3.76519 27.6968 3.38643C27.6968 3.00767 27.8407 2.50637 28.1174 2.10533V2.09419Z" fill="#00A958"/>
<path d="M28.1287 2.09434C28.4498 1.62646 28.959 1.37024 29.4018 1.3034C29.8446 1.23656 30.2541 1.3591 30.3648 1.65988C30.5198 2.06092 29.8003 2.4731 29.3907 2.9744C28.7929 3.68736 28.5937 3.88788 28.173 3.94358C27.8631 3.98814 27.7191 3.72078 27.7081 3.34202C27.697 2.96326 27.852 2.4731 28.1287 2.0832V2.09434Z" fill="#00AA59"/>
<path d="M28.1396 2.09443C28.4606 1.63769 28.9477 1.38147 29.4015 1.31463C29.8554 1.24779 30.2428 1.37033 30.3535 1.67111C30.5085 2.06101 29.8 2.47319 29.3905 2.96335C28.8038 3.66517 28.6045 3.86569 28.1838 3.92139C27.8739 3.96595 27.73 3.70973 27.73 3.33097C27.73 2.95221 27.8739 2.48433 28.1396 2.09443Z" fill="#00AB5A"/>
<path d="M28.1506 2.09458C28.4606 1.63784 28.9477 1.39276 29.3904 1.32592C29.8332 1.25908 30.2096 1.38162 30.3314 1.67126C30.4753 2.05002 29.8 2.4622 29.3904 2.94122C28.8148 3.62076 28.6156 3.82128 28.206 3.88812C27.9071 3.93268 27.7632 3.67646 27.7632 3.30884C27.7632 2.94122 27.896 2.47334 28.1728 2.08344L28.1506 2.09458Z" fill="#09AC5C"/>
<path d="M28.1616 2.09424C28.4716 1.64864 28.9476 1.40356 29.3793 1.34786C29.811 1.29216 30.1874 1.40356 30.2981 1.6932C30.442 2.07196 29.7778 2.46186 29.3683 2.94088C28.8037 3.60928 28.5934 3.8098 28.1949 3.87664C27.896 3.9212 27.7631 3.66498 27.7521 3.3085C27.741 2.95202 27.8849 2.48414 28.1506 2.10538L28.1616 2.09424Z" fill="#1FAE5D"/>
<path d="M28.1726 2.09438C28.4715 1.65992 28.9475 1.41484 29.3681 1.35914C29.7888 1.30344 30.1652 1.41484 30.2759 1.69334C30.4198 2.06096 29.7667 2.45086 29.3681 2.91874C28.8147 3.576 28.6043 3.77652 28.2169 3.83222C27.9291 3.87678 27.7852 3.6317 27.7852 3.27522C27.7852 2.91874 27.918 2.462 28.1726 2.09438Z" fill="#2CAF5F"/>
<path d="M28.1838 2.09447C28.4827 1.66001 28.9476 1.42607 29.3572 1.37037C29.7668 1.31467 30.1432 1.42607 30.2539 1.70457C30.3867 2.06105 29.7557 2.45095 29.3572 2.91883C28.8148 3.56495 28.6045 3.76547 28.217 3.82117C27.9292 3.86573 27.7964 3.62065 27.7964 3.27531C27.7964 2.92997 27.9292 2.47323 28.1838 2.11675V2.09447Z" fill="#34B060"/>
<path d="M28.1947 2.09461C28.4825 1.67129 28.9475 1.43735 29.3571 1.38165C29.7667 1.32595 30.132 1.43735 30.2316 1.70471C30.3644 2.05005 29.7445 2.43995 29.3571 2.89669C28.8257 3.52053 28.6043 3.73219 28.239 3.78789C27.9623 3.83245 27.8184 3.58737 27.8184 3.24203C27.8184 2.89669 27.9512 2.46223 28.1947 2.09461Z" fill="#3CB162"/>
<path d="M28.206 2.09421C28.4938 1.68203 28.9476 1.44809 29.3462 1.39239C29.7447 1.3367 30.11 1.44809 30.2096 1.71545C30.3424 2.06079 29.7336 2.43955 29.3462 2.88515C28.8259 3.49785 28.6045 3.69837 28.2392 3.75407C27.9624 3.79863 27.8296 3.55355 27.8296 3.21935C27.8296 2.88515 27.9514 2.45069 28.206 2.09421Z" fill="#43B363"/>
<path d="M28.217 2.09436C28.5048 1.68218 28.9366 1.45938 29.3351 1.40368C29.7336 1.34798 30.0768 1.45938 30.1875 1.7156C30.3092 2.0498 29.7225 2.42856 29.3462 2.86302C28.8369 3.46458 28.6155 3.6651 28.2613 3.7208C27.9846 3.76536 27.8628 3.53142 27.8628 3.19722C27.8628 2.86302 27.9846 2.4397 28.2281 2.09436H28.217Z" fill="#4AB465"/>
<path d="M28.2279 2.09445C28.5047 1.69341 28.9364 1.47061 29.3239 1.41491C29.7113 1.35921 30.0545 1.47061 30.1541 1.72683C30.2759 2.04989 29.7002 2.41751 29.3239 2.85197C28.8257 3.44239 28.5932 3.64291 28.2501 3.69861C27.9844 3.74317 27.8516 3.50923 27.8516 3.18617C27.8516 2.86311 27.9733 2.43979 28.2058 2.09445H28.2279Z" fill="#50B567"/>
<path d="M28.2284 2.09459C28.5052 1.70469 28.9258 1.48189 29.3133 1.42619C29.7007 1.37049 30.0328 1.48189 30.1324 1.72697C30.2542 2.03889 29.6896 2.40651 29.3243 2.82983C28.8262 3.39797 28.6048 3.60963 28.2727 3.65419C28.007 3.69875 27.8853 3.46481 27.8853 3.15289C27.8853 2.84097 28.007 2.41765 28.2395 2.08345L28.2284 2.09459Z" fill="#55B768"/>
<path d="M28.2393 2.09454C28.505 1.70464 28.9256 1.49298 29.302 1.43728C29.6784 1.38158 30.0105 1.48184 30.1101 1.73806C30.2319 2.03884 29.6784 2.40646 29.3131 2.81864C28.826 3.37564 28.6046 3.5873 28.2836 3.63186C28.029 3.66528 27.9072 3.45362 27.8961 3.1417C27.8851 2.82978 28.0179 2.4176 28.2393 2.09454Z" fill="#5BB86A"/>
<path d="M28.2504 2.09421C28.5161 1.71545 28.9257 1.50379 29.291 1.44809C29.6563 1.39239 29.9884 1.49265 30.0769 1.73773C30.1876 2.03851 29.6563 2.39499 29.302 2.80717C28.826 3.35303 28.6046 3.56469 28.2836 3.60925C28.029 3.64267 27.9072 3.43101 27.9072 3.11909C27.9072 2.80717 28.0179 2.41727 28.2504 2.09421Z" fill="#60B96C"/>
<path d="M28.2613 2.0943C28.5159 1.72668 28.9255 1.51502 29.2797 1.45932C29.634 1.40362 29.966 1.50388 30.0546 1.74896C30.1653 2.0386 29.645 2.39508 29.2908 2.79612C28.8259 3.33084 28.5934 3.53136 28.2945 3.57592C28.051 3.60934 27.9292 3.39768 27.9292 3.0969C27.9292 2.79612 28.0399 2.40622 28.2613 2.08316V2.0943Z" fill="#65BA6D"/>
<path d="M28.2722 2.09446C28.5268 1.72684 28.9254 1.52632 29.2796 1.47062C29.6338 1.41492 29.9438 1.51518 30.0323 1.74912C30.143 2.02762 29.6338 2.37295 29.2907 2.77399C28.8368 3.28643 28.6043 3.49809 28.3055 3.54265C28.0619 3.57607 27.9512 3.37555 27.9401 3.07477C27.9291 2.77399 28.0508 2.39523 28.2722 2.08332V2.09446Z" fill="#69BC6F"/>
<path d="M28.2834 2.09458C28.527 1.7381 28.9144 1.53758 29.2686 1.49302C29.6229 1.44846 29.9218 1.53758 30.0103 1.77152C30.1099 2.03888 29.6229 2.38422 29.2797 2.77412C28.8369 3.27542 28.6045 3.48708 28.3166 3.53164C28.0731 3.56506 27.9624 3.36454 27.9624 3.0749C27.9624 2.78526 28.0731 2.4065 28.2834 2.10572V2.09458Z" fill="#6DBD71"/>
<path d="M28.2948 2.09424C28.5384 1.73776 28.9147 1.54838 29.2579 1.50382C29.6011 1.45926 29.8999 1.54838 29.9885 1.77118C30.0881 2.03854 29.6121 2.37274 29.28 2.75149C28.8483 3.24165 28.6048 3.45331 28.328 3.49787C28.0956 3.53129 27.9849 3.33077 27.9849 3.05227C27.9849 2.77377 28.0956 2.39502 28.2948 2.10538V2.09424Z" fill="#72BE73"/>
<path d="M28.3059 2.09433C28.5494 1.74899 28.9147 1.55961 29.2468 1.51505C29.5789 1.47049 29.8778 1.55961 29.9553 1.78241C30.0549 2.03863 29.59 2.37283 29.2579 2.74045C28.8372 3.21947 28.5937 3.43112 28.328 3.46454C28.0956 3.49796 27.9849 3.29745 27.9849 3.01895C27.9849 2.74045 28.0956 2.38397 28.2948 2.08319L28.3059 2.09433Z" fill="#76C075"/>
<path d="M28.3168 2.09447C28.5493 1.76027 28.9146 1.57089 29.2356 1.52633C29.5566 1.48177 29.8555 1.57089 29.933 1.78255C30.0215 2.02763 29.5788 2.36183 29.2577 2.72945C28.8481 3.18619 28.6046 3.39785 28.3389 3.44241C28.1175 3.47583 28.0068 3.28645 28.0068 3.00795C28.0068 2.72945 28.1065 2.38411 28.3057 2.09447H28.3168Z" fill="#7AC177"/>
<path d="M28.3279 2.09456C28.5603 1.76036 28.9146 1.58212 29.2356 1.53756C29.5566 1.493 29.8334 1.58212 29.9219 1.79378C30.0105 2.02772 29.5787 2.36192 29.2577 2.7184C28.8592 3.164 28.6157 3.37566 28.3611 3.42022C28.1397 3.45364 28.04 3.26426 28.04 2.9969C28.04 2.72954 28.1397 2.3842 28.3389 2.1057L28.3279 2.09456Z" fill="#7EC379"/>
<path d="M28.3391 2.09421C28.5605 1.77115 28.9147 1.59291 29.2247 1.54835C29.5346 1.50379 29.8114 1.59291 29.8889 1.79343C29.9774 2.01623 29.5568 2.33929 29.2468 2.69577C28.8594 3.13023 28.6048 3.34189 28.3723 3.37531C28.162 3.40873 28.0513 3.21935 28.0513 2.96313C28.0513 2.70691 28.1509 2.36157 28.3391 2.09421Z" fill="#82C47B"/>
<path d="M28.3498 2.0943C28.5712 1.78239 28.9144 1.60415 29.2133 1.55959C29.5122 1.51503 29.7889 1.60415 29.8664 1.80467C29.955 2.02746 29.5454 2.33938 29.2354 2.68472C28.859 3.10804 28.6044 3.3197 28.372 3.35312C28.1616 3.38654 28.062 3.2083 28.062 2.95208C28.062 2.69586 28.1616 2.36166 28.3498 2.0943Z" fill="#86C57C"/>
<path d="M28.3501 2.09445C28.5605 1.78253 28.8926 1.61543 29.1915 1.57087C29.4903 1.52631 29.756 1.61543 29.8335 1.80481C29.911 2.01647 29.5235 2.32839 29.2247 2.66259C28.8594 3.07477 28.6048 3.28643 28.3834 3.31985C28.173 3.35327 28.0845 3.17503 28.0845 2.92995C28.0845 2.68487 28.1841 2.36181 28.3612 2.09445H28.3501Z" fill="#8AC77E"/>
<path d="M28.3612 2.09442C28.5715 1.79364 28.8926 1.62654 29.1915 1.58198C29.4903 1.53742 29.7449 1.6154 29.8114 1.81592C29.8889 2.01644 29.5125 2.32836 29.2136 2.65142C28.8483 3.04132 28.5937 3.26412 28.3834 3.2864C28.1841 3.31982 28.0845 3.14158 28.0845 2.8965C28.0845 2.65142 28.173 2.3395 28.3501 2.08328L28.3612 2.09442Z" fill="#8EC881"/>
<path d="M28.3723 2.09457C28.5715 1.80494 28.8926 1.63784 29.1804 1.59328C29.4682 1.54872 29.7228 1.6267 29.7892 1.81608C29.8667 2.00545 29.5014 2.31737 29.2136 2.62929C28.8594 3.00805 28.6047 3.21971 28.4055 3.25313C28.2062 3.28655 28.1177 3.11945 28.1177 2.87437C28.1177 2.62929 28.2062 2.32851 28.3834 2.08343L28.3723 2.09457Z" fill="#91CA83"/>
<path d="M28.3832 2.09418C28.5825 1.80454 28.8924 1.64858 29.1692 1.60402C29.4459 1.55946 29.6895 1.63744 29.7669 1.82682C29.8334 2.00506 29.4902 2.31698 29.2024 2.6289C28.8592 2.99652 28.6046 3.20818 28.4054 3.2416C28.2061 3.27502 28.1286 3.10792 28.1175 2.87398C28.1065 2.64004 28.2061 2.33926 28.3721 2.09418H28.3832Z" fill="#95CB85"/>
<path d="M28.3943 2.09434C28.5935 1.81584 28.8924 1.65988 29.1581 1.61532C29.4237 1.57076 29.6673 1.64874 29.7337 1.82698C29.8001 2.00522 29.468 2.29486 29.1913 2.60678C28.8592 2.96326 28.6046 3.17492 28.4164 3.20834C28.2282 3.24176 28.1396 3.07466 28.1396 2.85186C28.1396 2.62906 28.2282 2.32828 28.3943 2.09434Z" fill="#99CD87"/>
<path d="M28.4052 2.09444C28.5933 1.81594 28.8922 1.67112 29.1579 1.6377C29.4236 1.60428 29.656 1.67112 29.7225 1.84936C29.7889 2.01646 29.4679 2.3061 29.1911 2.60688C28.8701 2.94108 28.6044 3.16388 28.4273 3.18616C28.2502 3.20844 28.1616 3.05248 28.1616 2.84082C28.1616 2.62916 28.2502 2.33952 28.4052 2.10558V2.09444Z" fill="#9CCE89"/>
<path d="M28.4165 2.09458C28.6047 1.82722 28.8926 1.6824 29.1472 1.64898C29.4018 1.61556 29.6342 1.6824 29.7006 1.8495C29.756 2.00546 29.4682 2.2951 29.1914 2.58474C28.8815 2.9078 28.6158 3.1306 28.4498 3.15288C28.2726 3.17516 28.1841 3.03034 28.1841 2.81868C28.1841 2.60702 28.2616 2.32852 28.4165 2.09458Z" fill="#A0CF8B"/>
<path d="M28.4276 2.09418C28.6047 1.83796 28.8815 1.69314 29.1361 1.65972C29.3907 1.6263 29.6121 1.69314 29.6674 1.86024C29.7228 2.00506 29.446 2.2947 29.1693 2.5732C28.8704 2.88512 28.6047 3.10792 28.4387 3.1302C28.2616 3.15248 28.1841 3.00766 28.1841 2.796C28.1841 2.58434 28.2616 2.31698 28.4165 2.09418H28.4276Z" fill="#A3D18D"/>
<path d="M28.4387 2.09432C28.6158 1.8381 28.8815 1.70442 29.125 1.671C29.3685 1.63758 29.5789 1.70442 29.6453 1.86038C29.7006 2.0052 29.435 2.2837 29.1693 2.55106C28.8815 2.85184 28.6047 3.0635 28.4608 3.08578C28.2948 3.10806 28.2173 2.96324 28.2173 2.76272C28.2173 2.5622 28.2948 2.29484 28.4387 2.08318V2.09432Z" fill="#A7D28F"/>
<path d="M28.4494 2.09442C28.6155 1.84934 28.8811 1.71566 29.1136 1.68224C29.3461 1.64882 29.5564 1.71566 29.6228 1.87162C29.6782 2.0053 29.4236 2.28379 29.1579 2.55115C28.8811 2.82965 28.6044 3.05245 28.4716 3.07473C28.3055 3.09701 28.228 2.96333 28.228 2.76281C28.228 2.56229 28.3055 2.30608 28.4494 2.10556V2.09442Z" fill="#AAD491"/>
<path d="M28.4608 2.09456C28.6269 1.86062 28.8815 1.72694 29.1139 1.69352C29.3464 1.6601 29.5457 1.72694 29.601 1.87176C29.6453 1.9943 29.4128 2.2728 29.1582 2.52902C28.9036 2.78524 28.6158 3.01918 28.483 3.04146C28.328 3.06374 28.2505 2.93006 28.2505 2.74068C28.2505 2.5513 28.328 2.29508 28.4608 2.09456Z" fill="#ADD593"/>
<path d="M28.4717 2.09465C28.6267 1.86071 28.8813 1.73817 29.1027 1.70475C29.3241 1.67133 29.5234 1.73817 29.5787 1.88299C29.623 1.99439 29.4016 2.26175 29.147 2.51797C28.8924 2.77419 28.6156 2.99699 28.4939 3.00813C28.3389 3.03041 28.2725 2.89673 28.2725 2.71849C28.2725 2.54025 28.3389 2.29517 28.4828 2.09465H28.4717Z" fill="#B1D696"/>
<path d="M28.4939 2.97428C28.3499 2.99656 28.2725 2.87402 28.2725 2.68464C28.2725 2.49526 28.3389 2.27246 28.4717 2.08308C28.6267 1.86028 28.8702 1.73774 29.0806 1.70432C29.2909 1.6709 29.4901 1.73774 29.5455 1.87142C29.5898 1.97168 29.3794 2.23904 29.1359 2.48412C28.8924 2.7292 28.6046 2.952 28.4939 2.96314V2.97428Z" fill="#B4D898"/>
<path d="M30.4865 9.66963C30.4865 12.5103 28.195 14.8052 25.3833 14.8052C22.5716 14.8052 20.269 12.4992 20.269 9.66963C20.269 6.84007 22.5605 4.52295 25.3833 4.52295C28.2061 4.52295 30.4865 6.82893 30.4865 9.66963Z" fill="#005083"/>
<path d="M29.5786 9.66972C29.5786 12.0091 27.6967 13.8918 25.3721 13.8918C23.0474 13.8918 21.1655 11.998 21.1655 9.66972C21.1655 7.34146 23.0474 5.43652 25.3721 5.43652C27.6967 5.43652 29.5786 7.33032 29.5786 9.66972Z" fill="#E60012"/>
<path d="M24.2874 8.64465C23.2468 9.93689 23.0143 10.1931 22.2173 10.3157C21.6859 10.3936 21.4313 9.93689 21.4203 9.29077C21.4092 8.64465 21.6638 7.79801 22.1398 7.11847C22.6933 6.31639 23.5567 5.87079 24.3427 5.75939C25.1287 5.64799 25.8039 5.85965 26.0032 6.37209C26.291 7.12961 24.9737 7.78687 24.2874 8.64465Z" fill="#E60012"/>
<path d="M22.1512 7.11865C22.7047 6.32771 23.557 5.89326 24.3209 5.78186C25.0847 5.67046 25.771 5.88211 25.9592 6.39455C26.247 7.14093 24.9518 7.79819 24.2655 8.63369C23.236 9.91479 23.0036 10.171 22.2176 10.2824C21.6862 10.3604 21.4316 9.90365 21.4316 9.26867C21.4316 8.63369 21.6752 7.79819 22.1401 7.11865H22.1512Z" fill="#E60813"/>
<path d="M22.173 7.11832C22.7154 6.33852 23.5567 5.90406 24.3205 5.79266C25.0844 5.68126 25.7485 5.89292 25.9478 6.39422C26.2245 7.11831 24.9515 7.77557 24.2763 8.61107C23.2578 9.86989 23.0254 10.1261 22.2505 10.2375C21.7302 10.3155 21.4756 9.86989 21.4756 9.23491C21.4756 8.59993 21.7081 7.78671 22.173 7.11832Z" fill="#E61114"/>
<path d="M22.1842 7.11855C22.7156 6.3499 23.5569 5.92658 24.2986 5.81518C25.0402 5.70378 25.7044 5.91544 25.9037 6.4056C26.1804 7.11856 24.9185 7.76467 24.2543 8.58903C23.2469 9.82557 23.0145 10.0818 22.2506 10.2043C21.7414 10.2823 21.4868 9.83671 21.4868 9.21287C21.4868 8.58903 21.7193 7.77581 22.1842 7.11855Z" fill="#E61815"/>
<path d="M22.1953 7.11865C22.7266 6.36113 23.5458 5.93781 24.2875 5.82641C25.0292 5.71501 25.6823 5.92667 25.8705 6.41683C26.1472 7.11865 24.9074 7.76476 24.2432 8.57798C23.258 9.79224 23.0144 10.0596 22.2728 10.171C21.7636 10.249 21.52 9.81452 21.52 9.19068C21.52 8.56684 21.7525 7.7759 22.2063 7.12979L22.1953 7.11865Z" fill="#E71E17"/>
<path d="M22.2062 7.11837C22.7265 6.36085 23.5456 5.94867 24.2762 5.84841C25.0069 5.74815 25.6489 5.94867 25.8371 6.42769C26.1028 7.11837 24.8851 7.75335 24.232 8.55543C23.2578 9.75855 23.0143 10.0148 22.2837 10.1262C21.7855 10.2041 21.542 9.76969 21.542 9.15699C21.542 8.54429 21.7745 7.75335 22.2173 7.11837H22.2062Z" fill="#E72418"/>
<path d="M22.2284 7.11855C22.7487 6.37217 23.5457 5.97113 24.2652 5.85973C24.9848 5.74833 25.6268 5.95999 25.8039 6.42787C26.0696 7.10741 24.8741 7.73125 24.2209 8.53333C23.2579 9.71417 23.0143 9.97039 22.2948 10.0818C21.7966 10.1598 21.5642 9.72531 21.5531 9.12375C21.542 8.52219 21.7745 7.74239 22.2173 7.10741L22.2284 7.11855Z" fill="#E7281A"/>
<path d="M22.2394 7.11852C22.7486 6.38329 23.5457 5.98225 24.2541 5.88199C24.9626 5.78173 25.5936 5.97111 25.7818 6.45013C26.0364 7.11852 24.863 7.74236 24.2209 8.52216C23.2689 9.68072 23.0254 9.94808 22.3169 10.0483C21.8299 10.1263 21.5974 9.703 21.5863 9.11258C21.5752 8.52216 21.8077 7.7535 22.2394 7.12966V7.11852Z" fill="#E72D1B"/>
<path d="M22.2507 7.11867C22.7488 6.39457 23.5348 5.99353 24.2322 5.89327C24.9296 5.79301 25.5495 5.98239 25.7377 6.45027C25.9923 7.10753 24.8299 7.72023 24.199 8.50003C23.2691 9.64745 23.0145 9.90367 22.3171 10.0151C21.83 10.0931 21.6086 9.66973 21.5975 9.09045C21.5865 8.51117 21.8189 7.74251 22.2507 7.12981V7.11867Z" fill="#E7311D"/>
<path d="M22.2617 7.11843C22.7598 6.40547 23.5236 6.01557 24.221 5.91531C24.9184 5.81505 25.5273 6.00443 25.7044 6.46117C25.9479 7.10729 24.8188 7.71998 24.1878 8.4775C23.269 9.60264 23.0144 9.87 22.3281 9.97026C21.8521 10.0371 21.6196 9.63606 21.6196 9.05678C21.6196 8.4775 21.841 7.73112 22.2617 7.11843Z" fill="#E8341E"/>
<path d="M22.2837 7.11852C22.7707 6.4167 23.5345 6.0268 24.2098 5.92654C24.8851 5.82628 25.4939 6.01566 25.671 6.4724C25.9146 7.10738 24.7965 7.70893 24.1766 8.46645C23.2689 9.56931 23.0143 9.83667 22.339 9.93693C21.8741 10.0038 21.6416 9.60273 21.6416 9.03459C21.6416 8.46645 21.8519 7.73121 22.2726 7.12966L22.2837 7.11852Z" fill="#E83820"/>
<path d="M22.2946 7.11825C22.7706 6.42757 23.5233 6.03767 24.1986 5.94855C24.8738 5.85943 25.4716 6.03767 25.6376 6.48327C25.8812 7.10711 24.7853 7.69753 24.1654 8.44391C23.2687 9.53563 23.0141 9.79185 22.3499 9.89211C21.885 9.95895 21.6636 9.56905 21.6636 9.00091C21.6636 8.43277 21.8739 7.70867 22.2835 7.11825H22.2946Z" fill="#E83B21"/>
<path d="M22.3056 7.11842C22.7816 6.43888 23.5233 6.06012 24.1875 5.95986C24.8517 5.8596 25.4384 6.04898 25.6044 6.48344C25.8369 7.09614 24.7631 7.68656 24.1543 8.4218C23.2798 9.49124 23.0141 9.7586 22.372 9.84772C21.9182 9.91456 21.6968 9.52466 21.6968 8.96766C21.6968 8.41066 21.9071 7.6977 22.3167 7.10728L22.3056 7.11842Z" fill="#E83E23"/>
<path d="M22.317 7.11857C22.7819 6.43903 23.5126 6.07141 24.1657 5.98229C24.8188 5.89317 25.3944 6.07141 25.5715 6.50587C25.804 7.10743 24.7413 7.68671 24.1435 8.41081C23.2801 9.45797 23.0144 9.72533 22.3834 9.82559C21.9296 9.89243 21.7192 9.50253 21.7192 8.95667C21.7192 8.41081 21.9296 7.69785 22.3281 7.12971L22.317 7.11857Z" fill="#E84125"/>
<path d="M22.3389 7.11871C22.8038 6.45031 23.5234 6.0827 24.1654 5.99358C24.8075 5.90446 25.3831 6.0827 25.5492 6.50602C25.7706 7.09643 24.7411 7.67571 24.1433 8.38867C23.2909 9.41355 23.0252 9.69205 22.4053 9.78117C21.9625 9.84801 21.7522 9.46925 21.7411 8.92339C21.7301 8.37753 21.9404 7.68685 22.3389 7.11871Z" fill="#E94426"/>
<path d="M22.3501 7.11846C22.804 6.4612 23.5125 6.10472 24.1435 6.0156C24.7744 5.92648 25.339 6.10472 25.505 6.5169C25.7264 7.09618 24.708 7.66432 24.1213 8.36614C23.28 9.37988 23.0143 9.64724 22.4055 9.73636C21.9738 9.8032 21.7634 9.42444 21.7524 8.90086C21.7413 8.37728 21.9516 7.6866 22.3391 7.1296L22.3501 7.11846Z" fill="#E94728"/>
<path d="M22.361 7.11839C22.8038 6.47227 23.5012 6.11579 24.1322 6.02667C24.7632 5.93755 25.3167 6.10465 25.4717 6.52797C25.6931 7.08497 24.6968 7.65311 24.1101 8.35492C23.2798 9.34638 23.0142 9.61374 22.4164 9.70286C21.9847 9.7697 21.7854 9.40208 21.7743 8.8785C21.7633 8.35492 21.9736 7.67539 22.35 7.12953L22.361 7.11839Z" fill="#E9492A"/>
<path d="M22.3725 7.11866C22.8153 6.48368 23.5016 6.13834 24.1215 6.03808C24.7415 5.93782 25.2839 6.11606 25.4388 6.52824C25.6492 7.0741 24.675 7.64224 24.0994 8.32178C23.2913 9.29096 23.0146 9.56946 22.4279 9.65858C22.0072 9.72542 21.7969 9.3578 21.7969 8.84536C21.7969 8.33292 21.9851 7.66452 22.3725 7.11866Z" fill="#E94C2C"/>
<path d="M22.3946 7.11829C22.8264 6.49445 23.5016 6.14911 24.1105 6.05999C24.7193 5.97087 25.2507 6.13797 25.4056 6.53901C25.616 7.07373 24.6529 7.63073 24.0994 8.29913C23.3024 9.25717 23.0256 9.52453 22.45 9.61365C22.0293 9.68049 21.8301 9.31287 21.8301 8.81157C21.8301 8.31027 22.0183 7.65301 22.3946 7.11829Z" fill="#EA4F2D"/>
<path d="M22.4057 7.11838C22.8374 6.50568 23.5016 6.16034 24.0994 6.07122C24.6972 5.9821 25.2285 6.1492 25.3835 6.55024C25.5827 7.07382 24.6529 7.61968 24.0994 8.28808C23.3134 9.22384 23.0367 9.50234 22.4721 9.58032C22.0625 9.64716 21.8633 9.29068 21.8633 8.78938C21.8633 8.28808 22.0515 7.64196 22.4168 7.11838H22.4057Z" fill="#EA512F"/>
<path d="M22.4164 7.10739C22.8371 6.50583 23.4902 6.17163 24.0769 6.08251C24.6636 5.99339 25.1839 6.16049 25.3389 6.55039C25.5381 7.06283 24.6193 7.60869 24.0769 8.25481C23.302 9.16829 23.0253 9.44679 22.4718 9.52477C22.0733 9.58047 21.874 9.23513 21.874 8.74497C21.874 8.25481 22.0622 7.61983 22.4164 7.09625V7.10739Z" fill="#EA5431"/>
<path d="M22.4275 7.10754C22.8371 6.50598 23.4902 6.18292 24.0658 6.0938C24.6415 6.00468 25.1507 6.17178 25.3057 6.55054C25.4939 7.05184 24.6083 7.58656 24.0658 8.23268C23.3131 9.12388 23.0253 9.40238 22.4939 9.48036C22.0954 9.53606 21.9072 9.20186 21.9072 8.7117C21.9072 8.22154 22.0843 7.5977 22.4386 7.0964L22.4275 7.10754Z" fill="#EA5633"/>
<path d="M22.4498 7.1072C22.8594 6.51678 23.4903 6.19372 24.0549 6.11574C24.6195 6.03776 25.1287 6.19372 25.2726 6.57248C25.4608 7.06264 24.5863 7.59736 24.0549 8.2212C23.3132 9.10126 23.0254 9.37976 22.5051 9.45774C22.1177 9.51344 21.9295 9.17924 21.9184 8.70022C21.9074 8.2212 22.0955 7.6085 22.4498 7.1072Z" fill="#EA5934"/>
<path d="M22.4607 7.10739C22.8592 6.52811 23.4791 6.21619 24.0437 6.12707C24.6082 6.03795 25.0953 6.20505 25.2392 6.57267C25.4274 7.05169 24.564 7.57527 24.0437 8.1991C23.3131 9.05688 23.0252 9.33538 22.516 9.41336C22.1286 9.46906 21.9515 9.146 21.9404 8.67812C21.9293 8.21024 22.1175 7.60868 22.4607 7.11853V7.10739Z" fill="#EB5B36"/>
<path d="M22.4721 7.10742C22.8706 6.53928 23.4795 6.22736 24.0329 6.14938C24.5864 6.0714 25.0735 6.21622 25.2064 6.58384C25.3835 7.05172 24.5532 7.56416 24.0329 8.17685C23.3134 9.01235 23.0256 9.29085 22.5275 9.36883C22.1511 9.42453 21.9629 9.10147 21.9629 8.64473C21.9629 8.18799 22.14 7.58644 22.4721 7.10742Z" fill="#EB5D38"/>
<path d="M22.483 7.10757C22.8704 6.55057 23.4682 6.23865 24.0106 6.16067C24.5531 6.08269 25.0291 6.22751 25.173 6.58399C25.3501 7.04073 24.5309 7.55317 24.0217 8.15473C23.3243 8.97908 23.0254 9.25758 22.5384 9.32442C22.162 9.38012 21.9849 9.05706 21.9849 8.61146C21.9849 8.16587 22.1509 7.57545 22.483 7.09643V7.10757Z" fill="#EB603A"/>
<path d="M22.5051 7.10726C22.8815 6.5614 23.4793 6.26062 24.0106 6.18264C24.542 6.10466 25.0069 6.24948 25.1508 6.60596C25.3169 7.05156 24.5309 7.55286 24.0217 8.14328C23.3354 8.94536 23.0254 9.22386 22.5605 9.30184C22.1952 9.35754 22.0181 9.04562 22.0181 8.60002C22.0181 8.15442 22.1841 7.58628 22.5051 7.1184V7.10726Z" fill="#EB623C"/>
<path d="M22.5164 7.10741C22.8927 6.57269 23.4684 6.27191 23.9887 6.19393C24.5089 6.11595 24.9739 6.26077 25.1067 6.60611C25.2728 7.04057 24.4979 7.54187 23.9997 8.12115C23.3245 8.90095 23.0145 9.19059 22.5606 9.25743C22.2064 9.31313 22.0293 9.00121 22.0293 8.56675C22.0293 8.13229 22.1953 7.56415 22.5164 7.10741Z" fill="#EC653E"/>
<path d="M22.5273 7.10713C22.8926 6.58355 23.4682 6.28277 23.9774 6.21593C24.4866 6.14909 24.9405 6.28277 25.0733 6.61697C25.2394 7.04029 24.4756 7.53045 23.9885 8.09859C23.3243 8.86725 23.0143 9.14575 22.5716 9.21259C22.2173 9.26829 22.0513 8.96751 22.0513 8.53305C22.0513 8.09859 22.2173 7.55273 22.5273 7.09599V7.10713Z" fill="#EC6740"/>
<path d="M22.5382 7.10725C22.8924 6.59482 23.457 6.30518 23.9551 6.2272C24.4533 6.14922 24.9071 6.29404 25.0289 6.62823C25.1839 7.02927 24.4533 7.51943 23.9662 8.08757C23.3241 8.83395 23.0031 9.11245 22.5825 9.17929C22.2393 9.23499 22.0732 8.93421 22.0732 8.51089C22.0732 8.08757 22.2282 7.54171 22.5382 7.10725Z" fill="#EC6942"/>
<path d="M22.5607 7.10745C22.9149 6.59501 23.4573 6.31651 23.9555 6.24967C24.4536 6.18283 24.8853 6.31651 25.0071 6.63957C25.1621 7.02947 24.4425 7.51963 23.9665 8.06549C23.3356 8.78959 23.0145 9.07923 22.6049 9.13493C22.2618 9.19063 22.1068 8.88985 22.0957 8.47767C22.0847 8.06549 22.2507 7.53077 22.5496 7.09631L22.5607 7.10745Z" fill="#EC6C44"/>
<path d="M22.5717 7.10716C22.9149 6.60586 23.4573 6.3385 23.9444 6.26052C24.4315 6.18254 24.8521 6.32736 24.985 6.63928C25.1289 7.01804 24.4425 7.49706 23.9665 8.04292C23.3466 8.74474 23.0256 9.03438 22.6271 9.10122C22.295 9.15692 22.14 8.86728 22.1289 8.46624C22.1179 8.0652 22.2839 7.54162 22.5828 7.10716H22.5717Z" fill="#ED6E46"/>
<path d="M22.5824 7.10729C22.9256 6.61713 23.4459 6.34977 23.9219 6.28293C24.3979 6.21609 24.8185 6.34977 24.9403 6.66169C25.0842 7.02931 24.409 7.50833 23.944 8.03191C23.3352 8.72259 23.0142 9.01223 22.6267 9.06793C22.3057 9.11249 22.1396 8.83399 22.1396 8.44409C22.1396 8.05419 22.2836 7.53061 22.5824 7.11843V7.10729Z" fill="#ED7048"/>
<path d="M22.5938 7.10728C22.9259 6.62826 23.4462 6.3609 23.9111 6.29406C24.3761 6.22722 24.7857 6.34976 24.9074 6.66168C25.0403 7.01816 24.3982 7.48604 23.9333 8.00962C23.3466 8.67802 23.0145 8.96766 22.6381 9.02336C22.3171 9.06792 22.1621 8.80056 22.1621 8.41066C22.1621 8.02076 22.306 7.51946 22.5938 7.10728Z" fill="#ED724A"/>
<path d="M22.6158 7.10752C22.9368 6.63964 23.446 6.38342 23.8999 6.31658C24.3538 6.24974 24.7634 6.37228 24.874 6.67306C25.0069 7.0184 24.3759 7.47514 23.922 7.98758C23.3464 8.6337 23.0143 8.92334 22.649 8.97904C22.3391 9.0236 22.1841 8.75624 22.1841 8.37748C22.1841 7.99872 22.328 7.50856 22.6047 7.10752H22.6158Z" fill="#ED754D"/>
<path d="M22.6267 7.10712C22.9477 6.65039 23.4459 6.39416 23.8887 6.32732C24.3315 6.26048 24.73 6.38303 24.8407 6.6838C24.9735 7.018 24.3536 7.47474 23.9108 7.97604C23.3462 8.61102 23.0142 8.90066 22.6599 8.94522C22.35 8.98978 22.2061 8.73356 22.2061 8.3548C22.2061 7.97604 22.35 7.49702 22.6156 7.10712H22.6267Z" fill="#EE774F"/>
<path d="M22.6378 7.10733C22.9477 6.66173 23.4348 6.40551 23.8776 6.34981C24.3204 6.29411 24.6968 6.40551 24.8185 6.69515C24.9403 7.01821 24.3536 7.46381 23.9108 7.95397C23.3684 8.56667 23.0252 8.85631 22.6821 8.91201C22.3832 8.95657 22.2393 8.70035 22.2393 8.33273C22.2393 7.96511 22.3721 7.49723 22.6488 7.10733H22.6378Z" fill="#EE7951"/>
<path d="M22.6602 7.10752C22.9702 6.67306 23.4462 6.42798 23.8668 6.36114C24.2875 6.2943 24.6749 6.41684 24.7856 6.69534C24.9074 7.00726 24.3318 7.45286 23.9001 7.92074C23.3687 8.51116 23.0255 8.81194 22.6934 8.8565C22.4056 8.90106 22.2617 8.64484 22.2617 8.28836C22.2617 7.93188 22.3946 7.464 22.6602 7.09638V7.10752Z" fill="#EE7B53"/>
<path d="M22.6712 7.10717C22.9701 6.67271 23.4351 6.43877 23.8557 6.38307C24.2764 6.32737 24.6417 6.43877 24.7524 6.71727C24.8631 7.01805 24.3206 7.4525 23.8889 7.92038C23.3686 8.49966 23.0255 8.7893 22.7155 8.83386C22.4277 8.87842 22.2949 8.63334 22.2838 8.27686C22.2727 7.92038 22.4166 7.47478 22.6712 7.10717Z" fill="#EE7E55"/>
<path d="M22.682 7.10731C22.9698 6.68399 23.4237 6.45005 23.8332 6.39435C24.2428 6.33865 24.6081 6.45005 24.7078 6.71741C24.8185 7.00705 24.2871 7.43037 23.8665 7.88711C23.3572 8.44411 23.0141 8.73375 22.7152 8.77831C22.4384 8.82287 22.3056 8.57779 22.2945 8.24359C22.2835 7.90939 22.4274 7.46379 22.6709 7.09617L22.682 7.10731Z" fill="#EF8058"/>
<path d="M22.6933 7.10754C22.9811 6.69536 23.4239 6.47256 23.8224 6.41686C24.2209 6.36116 24.5751 6.47256 24.6748 6.72878C24.7744 6.985 24.2652 7.4306 23.8556 7.8762C23.3685 8.41092 23.0143 8.7117 22.7265 8.75626C22.4497 8.80082 22.3169 8.56688 22.3169 8.23268C22.3169 7.89848 22.4387 7.46402 22.6822 7.11868L22.6933 7.10754Z" fill="#EF825A"/>
<path d="M22.7152 7.10714C22.992 6.7061 23.4237 6.4833 23.8112 6.4276C24.1986 6.3719 24.5418 6.4833 24.6414 6.73952C24.741 6.99574 24.2539 7.41906 23.8444 7.85352C23.3684 8.3771 23.0141 8.66674 22.7374 8.7113C22.4717 8.75586 22.3389 8.52192 22.3389 8.19886C22.3389 7.8758 22.4606 7.45248 22.7042 7.10714H22.7152Z" fill="#EF845C"/>
<path d="M22.7265 7.10721C23.0032 6.71731 23.4239 6.49451 23.8002 6.44995C24.1766 6.40539 24.5198 6.49451 24.6194 6.75073C24.719 7.00695 24.243 7.41913 23.8556 7.84245C23.3907 8.34375 23.0364 8.63339 22.7707 8.67795C22.5051 8.72251 22.3833 8.48857 22.3833 8.17665C22.3833 7.86473 22.5051 7.45255 22.7375 7.11835L22.7265 7.10721Z" fill="#F0865F"/>
<path d="M22.7374 7.10739C23.003 6.72863 23.4126 6.51697 23.789 6.46127C24.1654 6.40557 24.4864 6.50583 24.586 6.75091C24.6857 6.99599 24.2318 7.39703 23.8444 7.80921C23.3905 8.28823 23.0363 8.58901 22.7816 8.62243C22.527 8.66699 22.4053 8.44419 22.4053 8.13227C22.4053 7.82035 22.527 7.41931 22.7484 7.09625L22.7374 7.10739Z" fill="#F08961"/>
<path d="M22.7486 7.10748C23.0032 6.73986 23.4128 6.5282 23.767 6.4725C24.1213 6.4168 24.4534 6.51706 24.5419 6.76214C24.6305 6.98494 24.1987 7.38598 23.8224 7.79816C23.3906 8.2549 23.0253 8.55568 22.7818 8.5891C22.5383 8.62252 22.4165 8.41086 22.4165 8.11008C22.4165 7.8093 22.5272 7.4194 22.7486 7.09634V7.10748Z" fill="#F08B64"/>
<path d="M22.7707 7.10724C23.0253 6.75076 23.4128 6.55024 23.767 6.49454C24.1212 6.43884 24.4312 6.5391 24.5198 6.77304C24.5973 6.9847 24.1987 7.38574 23.8224 7.77564C23.4017 8.22124 23.0364 8.52202 22.8039 8.55544C22.5604 8.58886 22.4497 8.38834 22.4497 8.08756C22.4497 7.78678 22.5604 7.40802 22.7818 7.10724H22.7707Z" fill="#F08D66"/>
<path d="M22.7817 7.1074C23.0252 6.75092 23.4016 6.56154 23.7448 6.50584C24.0879 6.45014 24.3868 6.5504 24.4754 6.7732C24.5529 6.97372 24.1654 7.36362 23.8001 7.75352C23.3905 8.17684 23.0252 8.47762 22.8149 8.51104C22.5824 8.54446 22.4717 8.34394 22.4607 8.0543C22.4496 7.76466 22.5714 7.39704 22.7817 7.09626V7.1074Z" fill="#F18F68"/>
<path d="M22.7929 7.10751C23.0253 6.76217 23.4017 6.57279 23.7338 6.52823C24.0659 6.48367 24.3648 6.57279 24.4423 6.79559C24.5198 6.98497 24.1434 7.37487 23.7892 7.74249C23.4017 8.14353 23.0253 8.44431 22.8261 8.47773C22.5936 8.51115 22.4829 8.32177 22.4829 8.04327C22.4829 7.76477 22.5825 7.40829 22.7929 7.10751Z" fill="#F1916B"/>
<path d="M22.8039 7.10725C23.0364 6.77305 23.3906 6.59481 23.7227 6.53911C24.0548 6.48341 24.3316 6.58367 24.4201 6.79533C24.4865 6.97357 24.1434 7.35233 23.7891 7.71995C23.4128 8.10985 23.0364 8.41063 22.8482 8.43291C22.6268 8.46633 22.5161 8.27695 22.5161 8.00959C22.5161 7.74223 22.6157 7.38575 22.815 7.10725H22.8039Z" fill="#F1946D"/>
<path d="M22.8259 7.1074C23.0473 6.78434 23.4015 6.6061 23.7115 6.56154C24.0214 6.51698 24.3093 6.6061 24.3867 6.80662C24.4532 6.97372 24.1211 7.34134 23.7779 7.69782C23.4347 8.0543 23.0362 8.36622 22.8591 8.39964C22.6488 8.43306 22.5381 8.24368 22.5381 7.98746C22.5381 7.73124 22.6377 7.3859 22.8259 7.1074Z" fill="#F19670"/>
<path d="M22.8373 7.10749C23.0587 6.79557 23.3908 6.61733 23.7007 6.57277C24.0107 6.52821 24.2764 6.61733 24.3539 6.81785C24.4092 6.97381 24.1103 7.34143 23.7672 7.68677C23.4129 8.04325 23.0366 8.34403 22.8705 8.36631C22.6602 8.39973 22.5605 8.22149 22.5605 7.96527C22.5605 7.70905 22.6602 7.38599 22.8484 7.11863L22.8373 7.10749Z" fill="#F29872"/>
<path d="M22.8702 8.32137C22.6709 8.35479 22.5713 8.17655 22.5713 7.93147C22.5713 7.68639 22.6598 7.36333 22.848 7.10711C23.0584 6.80633 23.3905 6.63923 23.6783 6.59467C23.9661 6.55011 24.2318 6.62809 24.3093 6.82861C24.3646 6.97343 24.0768 7.32991 23.7447 7.66411C23.4126 7.99831 23.0252 8.29909 22.8702 8.32137Z" fill="#F29A75"/>
<path d="M30.8077 3.50929C30.5974 3.28649 30.3428 3.17509 30.0439 3.17509C30.0217 3.17509 29.9996 3.17509 29.9664 3.17509C29.9332 3.17509 29.8889 3.17509 29.8446 3.18623L30.852 1.82715H30.2321L29.0476 3.42017C28.8151 3.74323 28.6934 4.04401 28.6934 4.33365C28.6934 4.65671 28.8151 4.93521 29.0587 5.16915C29.3022 5.40309 29.59 5.51449 29.9221 5.51449C30.2542 5.51449 30.531 5.39195 30.7745 5.15801C31.007 4.92407 31.1287 4.63443 31.1287 4.30023C31.1287 3.98831 31.018 3.72095 30.8077 3.49815V3.50929ZM30.387 4.82381C30.2542 4.95749 30.0992 5.02433 29.911 5.02433C29.7229 5.02433 29.5568 4.95749 29.424 4.82381C29.2911 4.69013 29.2247 4.53417 29.2247 4.34479C29.2247 4.15541 29.2911 3.98831 29.424 3.85463C29.5568 3.72095 29.7118 3.65411 29.911 3.65411C30.1103 3.65411 30.2542 3.72095 30.3981 3.85463C30.531 3.98831 30.5974 4.14427 30.5974 4.34479C30.5974 4.54531 30.531 4.69013 30.3981 4.82381H30.387Z" fill="white"/>
<path d="M27.4754 8.92328C27.2318 8.66706 26.9219 8.54452 26.5566 8.54452C26.5344 8.54452 26.5123 8.54452 26.4791 8.54452C26.457 8.54452 26.4237 8.54452 26.4016 8.54452L26.5898 7.8984H27.7853V7.35254H26.1913L25.5824 9.39116H25.7706C25.9588 9.15722 26.1913 9.04582 26.4459 9.04582C26.6783 9.04582 26.8776 9.1238 27.0326 9.2909C27.1876 9.44686 27.265 9.64738 27.265 9.9036C27.265 10.1598 27.1876 10.3492 27.0215 10.5163C26.8665 10.6834 26.6673 10.7614 26.4348 10.7614C26.2577 10.7614 26.1027 10.7168 25.9809 10.6388C25.8592 10.5497 25.7374 10.4049 25.6156 10.2044L25.1729 10.5831C25.4717 11.0622 25.8703 11.3072 26.3905 11.3072C26.8001 11.3072 27.1433 11.1736 27.42 10.9062C27.6857 10.6388 27.8296 10.3046 27.8296 9.89246C27.8296 9.48028 27.7078 9.16836 27.4643 8.92328H27.4754Z" fill="white"/>
<path d="M24.5089 7.35245H24.044L22.2617 10.3491V10.6833H23.9333V11.2403H24.52V10.6833H24.9295V10.1486H24.52V7.34131L24.5089 7.35245ZM23.9222 10.1597H23.0366L23.9222 8.63355V10.1597Z" fill="white"/>
</g>
<defs>
<linearGradient id="paint0_linear_1820_12424" x1="12.6198" y1="3.83223" x2="18.5665" y2="4.86663" gradientUnits="userSpaceOnUse">
<stop stop-color="#FCCE00"/>
<stop offset="0.23" stop-color="#F6A900"/>
<stop offset="0.43" stop-color="#F18E00"/>
<stop offset="0.61" stop-color="#EE7D00"/>
<stop offset="0.75" stop-color="#EE7800"/>
<stop offset="1" stop-color="#A84200"/>
</linearGradient>
<linearGradient id="paint1_linear_1820_12424" x1="6.45378" y1="5.26929" x2="12.9224" y2="3.83843" gradientUnits="userSpaceOnUse">
<stop stop-color="#AACE36"/>
<stop offset="0.8" stop-color="#00A33A"/>
<stop offset="1" stop-color="#306C30"/>
</linearGradient>
<linearGradient id="paint2_linear_1820_12424" x1="18.4644" y1="3.65408" x2="23.1084" y2="5.17397" gradientUnits="userSpaceOnUse">
<stop stop-color="#00A0E9"/>
<stop offset="0.03" stop-color="#0098E2"/>
<stop offset="0.19" stop-color="#0076C4"/>
<stop offset="0.31" stop-color="#0062B2"/>
<stop offset="0.4" stop-color="#005BAC"/>
</linearGradient>
<linearGradient id="paint3_linear_1820_12424" x1="1.01869" y1="16.7771" x2="10.9204" y2="18.8572" gradientUnits="userSpaceOnUse">
<stop stop-color="#AACE36"/>
<stop offset="0.8" stop-color="#00A33A"/>
<stop offset="1" stop-color="#306C30"/>
</linearGradient>
<linearGradient id="paint4_linear_1820_12424" x1="20.7785" y1="18.7935" x2="29.2986" y2="16.4815" gradientUnits="userSpaceOnUse">
<stop stop-color="#00A0E9"/>
<stop offset="0.08" stop-color="#008CD7"/>
<stop offset="0.2" stop-color="#0071BF"/>
<stop offset="0.31" stop-color="#0060B1"/>
<stop offset="0.4" stop-color="#005BAC"/>
</linearGradient>
<linearGradient id="paint5_linear_1820_12424" x1="9.95215" y1="19.9298" x2="20.714" y2="18.6206" gradientUnits="userSpaceOnUse">
<stop stop-color="#FCCE00"/>
<stop offset="0.23" stop-color="#F6A900"/>
<stop offset="0.43" stop-color="#F18E00"/>
<stop offset="0.61" stop-color="#EE7D00"/>
<stop offset="0.75" stop-color="#EE7800"/>
<stop offset="1" stop-color="#A84200"/>
</linearGradient>
<linearGradient id="paint6_linear_1820_12424" x1="15.642" y1="29.5214" x2="15.642" y2="24.9206" gradientUnits="userSpaceOnUse">
<stop stop-color="white" stop-opacity="0.67"/>
<stop offset="1" stop-color="white" stop-opacity="0"/>
</linearGradient>
<linearGradient id="paint7_linear_1820_12424" x1="-0.354042" y1="23.3493" x2="9.54771" y2="25.4294" gradientUnits="userSpaceOnUse">
<stop stop-color="#AACE36"/>
<stop offset="0.8" stop-color="#00A33A"/>
<stop offset="1" stop-color="#306C30"/>
</linearGradient>
<linearGradient id="paint8_linear_1820_12424" x1="22.5714" y1="25.4102" x2="31.0915" y2="23.0982" gradientUnits="userSpaceOnUse">
<stop stop-color="#00A0E9"/>
<stop offset="0.08" stop-color="#008CD7"/>
<stop offset="0.2" stop-color="#0071BF"/>
<stop offset="0.31" stop-color="#0060B1"/>
<stop offset="0.4" stop-color="#005BAC"/>
</linearGradient>
<linearGradient id="paint9_linear_1820_12424" x1="10.6383" y1="25.5216" x2="21.4002" y2="24.2013" gradientUnits="userSpaceOnUse">
<stop stop-color="#FCCE00"/>
<stop offset="0.23" stop-color="#F6A900"/>
<stop offset="0.43" stop-color="#F18E00"/>
<stop offset="0.61" stop-color="#EE7D00"/>
<stop offset="0.75" stop-color="#EE7800"/>
<stop offset="1" stop-color="#A84200"/>
</linearGradient>
<clipPath id="clip0_1820_12424">
<rect width="146" height="30" fill="white"/>
</clipPath>
</defs>
</svg>
